# xmcd CD database file
#
# Track frame offsets:
#	150
#	13650
#	37350
#	65513
#	81512
#	100656
#	124283
#	148073
#
# Disc length: 2155 seconds
#
# Revision: 0
# Processed by: cddbd v1.5.2PL0 Copyright (c) Steve Scherf et al.
# Submitted via: CDex 1.50
#
DISCID=75086908
DTITLE=Polina Zizak - First
DYEAR=2013
DGENRE=Jazz
TTITLE0=Boblicity
TTITLE1=Nica's Dream
TTITLE2=Lush Life
TTITLE3=Dat Dere
TTITLE4=Lets Stay Togather
TTITLE5=Visions
TTITLE6=Work Song
TTITLE7=Calling You
EXTD=YEAR: 2013
EXTT0=
EXTT1=
EXTT2=
EXTT3=
EXTT4=
EXTT5=
EXTT6=
EXTT7=
PLAYORDER=
